<svg width="250" height="250" viewBox="0 0 250 250" fill="none" xmlns="http://www.w3.org/2000/svg">
<path d="M120.177 228.364C120.304 229.443 120.823 230.281 121.732 230.878C122.641 231.474 123.756 231.773 125.077 231.773C126.043 231.773 126.888 231.616 127.613 231.304C128.33 230.991 128.891 230.562 129.296 230.015C129.694 229.468 129.893 228.847 129.893 228.151C129.893 227.568 129.754 227.067 129.477 226.648C129.193 226.237 128.831 225.892 128.39 225.615C127.95 225.345 127.488 225.121 127.005 224.944C126.523 224.773 126.079 224.635 125.674 224.528L123.458 223.932C122.89 223.783 122.258 223.577 121.562 223.314C120.858 223.051 120.187 222.692 119.548 222.238C118.902 221.79 118.369 221.215 117.95 220.512C117.531 219.809 117.322 218.946 117.322 217.923C117.322 216.744 117.63 215.679 118.248 214.727C118.859 213.776 119.754 213.019 120.933 212.458C122.105 211.897 123.529 211.616 125.205 211.616C126.768 211.616 128.121 211.869 129.264 212.373C130.4 212.877 131.295 213.58 131.949 214.482C132.595 215.384 132.961 216.432 133.046 217.625H130.319C130.248 216.801 129.971 216.119 129.488 215.58C128.998 215.047 128.38 214.649 127.634 214.386C126.881 214.131 126.072 214.003 125.205 214.003C124.197 214.003 123.291 214.166 122.488 214.493C121.686 214.827 121.05 215.288 120.581 215.878C120.113 216.474 119.878 217.17 119.878 217.966C119.878 218.69 120.081 219.28 120.486 219.734C120.89 220.189 121.423 220.558 122.084 220.842C122.744 221.126 123.458 221.375 124.225 221.588L126.91 222.355C128.614 222.845 129.964 223.545 130.958 224.454C131.952 225.363 132.449 226.553 132.449 228.023C132.449 229.244 132.119 230.31 131.459 231.219C130.791 232.135 129.896 232.845 128.774 233.349C127.645 233.861 126.384 234.116 124.992 234.116C123.586 234.116 122.336 233.864 121.242 233.36C120.148 232.863 119.282 232.181 118.643 231.315C117.996 230.448 117.655 229.464 117.62 228.364H120.177Z" fill="black"/>
<path d="M101.951 215.828L99.9439 225.291L97.4848 224.767L100.879 208.759L103.338 209.283L102.764 211.992L102.93 212.028C103.478 211.295 104.208 210.728 105.121 210.327C106.032 209.933 107.092 209.865 108.301 210.122C109.301 210.335 110.144 210.744 110.829 211.347C111.512 211.958 111.982 212.755 112.238 213.739C112.493 214.73 112.476 215.906 112.187 217.268L110.03 227.439L107.571 226.916L109.693 216.911C109.94 215.744 109.811 214.743 109.305 213.909C108.793 213.074 108.026 212.547 107.005 212.33C106.394 212.199 105.739 212.223 105.04 212.401C104.335 212.578 103.698 212.943 103.131 213.498C102.556 214.05 102.163 214.827 101.951 215.828Z" fill="black"/>
<path d="M79.2144 213.603L81.5364 213.939C81.5133 214.341 81.5561 214.761 81.6649 215.198C81.7643 215.639 81.9805 216.062 82.3134 216.467C82.6463 216.873 83.1468 217.224 83.8148 217.522C84.7293 217.931 85.5851 218.06 86.3821 217.91C87.1698 217.764 87.7064 217.369 87.9918 216.727C88.2455 216.155 88.2383 215.612 87.9703 215.095C87.7022 214.579 87.1762 214.014 86.3922 213.4L84.4162 211.864C83.2243 210.944 82.4493 210.003 82.0912 209.042C81.7303 208.087 81.7818 207.088 82.246 206.043C82.6266 205.186 83.2132 204.53 84.006 204.075C84.7923 203.617 85.7097 203.389 86.7582 203.39C87.8068 203.391 88.9115 203.651 90.0725 204.169C91.5966 204.849 92.7111 205.743 93.4158 206.851C94.1205 207.959 94.3233 209.208 94.0241 210.599L91.6027 210.172C91.7527 209.274 91.6284 208.496 91.23 207.836C90.825 207.173 90.1523 206.631 89.2119 206.212C88.1417 205.734 87.1912 205.582 86.3603 205.756C85.52 205.933 84.9571 206.343 84.6717 206.985C84.441 207.505 84.4295 208.02 84.637 208.533C84.8416 209.052 85.2812 209.567 85.9557 210.078L88.1867 211.774C89.4111 212.709 90.1929 213.661 90.5323 214.629C90.8623 215.601 90.7981 216.602 90.3396 217.634C89.9648 218.478 89.3966 219.119 88.6348 219.557C87.8665 219.992 86.9884 220.21 86.0004 220.213C85.0059 220.212 83.9833 219.977 82.9326 219.509C81.4539 218.849 80.4371 218.006 79.8822 216.981C79.3209 215.952 79.0983 214.826 79.2144 213.603Z" fill="black"/>
<path d="M60.881 205.905L62.1315 204.18L68.9865 209.172L67.736 210.897L60.881 205.905ZM63.4372 212.617L61.4049 211.137L70.5582 198.508C70.975 197.933 71.2043 197.441 71.2463 197.033C71.2783 196.625 71.1977 196.277 71.0044 195.987C70.8013 195.698 70.5504 195.445 70.2519 195.228C70.028 195.065 69.8359 194.942 69.6757 194.861C69.5114 194.785 69.3799 194.725 69.2812 194.679L70.1934 192.549C70.3687 192.598 70.5985 192.686 70.8829 192.814C71.1714 192.937 71.5052 193.136 71.8841 193.412C72.4582 193.83 72.9312 194.363 73.3031 195.012C73.6693 195.656 73.8499 196.363 73.8448 197.133C73.8339 197.898 73.5492 198.666 72.9907 199.436L63.4372 212.617Z" fill="black"/>
<path d="M61.491 183.453C62.1839 184.225 62.6678 185.056 62.9426 185.946C63.2122 186.841 63.2362 187.724 63.0149 188.593C62.7882 189.468 62.2795 190.262 61.4886 190.975C60.7926 191.604 60.1051 191.975 59.4259 192.091C58.7415 192.211 58.069 192.153 57.4082 191.917C56.7475 191.681 56.1073 191.34 55.4877 190.895C54.8581 190.449 54.2525 189.977 53.6708 189.478C52.9114 188.824 52.3016 188.289 51.8412 187.872C51.3708 187.454 50.9801 187.195 50.669 187.093C50.3531 186.986 50.0449 187.068 49.7444 187.339L49.6811 187.396C48.9008 188.1 48.4867 188.862 48.4388 189.68C48.3861 190.493 48.7466 191.33 49.5202 192.191C50.3223 193.084 51.1463 193.608 51.9921 193.763C52.8379 193.918 53.5748 193.899 54.2027 193.705L55.1648 196.051C54.1418 196.401 53.1875 196.497 52.3016 196.339C51.4057 196.182 50.5936 195.862 49.8654 195.381C49.1272 194.899 48.4827 194.352 47.9322 193.739C47.581 193.348 47.225 192.856 46.8643 192.263C46.4935 191.67 46.2369 191.007 46.0945 190.274C45.9473 189.537 46.0187 188.75 46.3086 187.914C46.5985 187.078 47.2259 186.225 48.1908 185.354L56.1943 178.131L57.8745 180.001L56.2295 181.486L56.3149 181.581C56.6924 181.47 57.1644 181.427 57.7307 181.451C58.297 181.476 58.9063 181.639 59.5586 181.94C60.2109 182.241 60.855 182.745 61.491 183.453ZM59.5581 184.681C58.8936 183.942 58.1886 183.449 57.443 183.204C56.6926 182.953 55.9718 182.905 55.2805 183.06C54.5845 183.21 53.9834 183.513 53.4773 183.97L51.769 185.512C51.9351 185.505 52.1787 185.601 52.4999 185.799C52.811 185.997 53.1522 186.244 53.5234 186.54C53.8846 186.836 54.2335 187.129 54.5699 187.418C54.8963 187.707 55.1629 187.94 55.3696 188.117C55.8695 188.546 56.3805 188.908 56.9026 189.202C57.4146 189.496 57.9266 189.646 58.4386 189.653C58.9406 189.659 59.4288 189.448 59.9034 189.019C60.5519 188.434 60.8262 187.751 60.7265 186.971C60.6168 186.189 60.2273 185.426 59.5581 184.681Z" fill="black"/>
<path d="M50.715 169.557L36.5521 177.753L35.2972 175.575L49.4601 167.378L50.715 169.557ZM33.5535 178.011C33.7981 178.436 33.8646 178.886 33.7529 179.361C33.6377 179.83 33.3772 180.181 32.9715 180.416C32.5658 180.651 32.1316 180.701 31.669 180.567C31.2029 180.426 30.8475 180.144 30.6029 179.719C30.3583 179.294 30.2936 178.848 30.4088 178.379C30.5205 177.904 30.7792 177.549 31.1849 177.314C31.5906 177.08 32.0265 177.032 32.4927 177.173C32.9553 177.307 33.3089 177.587 33.5535 178.011Z" fill="black"/>
<path d="M34.5865 158.674L43.9463 155.626L44.7216 158.017L29.1624 163.085L28.4134 160.774L30.8445 159.982L30.7788 159.78C29.8704 159.672 29.0561 159.325 28.3357 158.738C27.6086 158.153 27.0545 157.273 26.6734 156.097C26.3317 155.043 26.2489 154.051 26.4249 153.119C26.5941 152.19 27.0431 151.364 27.7719 150.642C28.4939 149.921 29.5168 149.345 30.8404 148.914L40.727 145.694L41.5023 148.086L31.7777 151.253C30.5554 151.651 29.7062 152.279 29.23 153.136C28.747 153.995 28.6851 154.979 29.0443 156.087C29.2917 156.85 29.6784 157.479 30.2042 157.972C30.7278 158.459 31.3629 158.771 32.1094 158.909C32.8559 159.047 33.6816 158.969 34.5865 158.674Z" fill="black"/>
<path d="M39.4196 134.751C39.5277 135.783 39.4316 136.739 39.1313 137.62C38.8239 138.503 38.3253 139.23 37.6355 139.803C36.9386 140.376 36.0605 140.719 35.001 140.83C34.0686 140.928 33.2936 140.824 32.6759 140.518C32.0512 140.212 31.5406 139.77 31.1442 139.19C30.7478 138.611 30.4295 137.959 30.1892 137.234C29.9412 136.503 29.7281 135.765 29.55 135.02C29.3192 134.044 29.1398 133.253 29.0117 132.645C28.8759 132.031 28.712 131.591 28.5199 131.325C28.3271 131.053 28.0294 130.938 27.6268 130.98L27.542 130.989C26.4967 131.099 25.7144 131.471 25.1952 132.104C24.6753 132.73 24.4757 133.619 24.5964 134.77C24.7216 135.964 25.0811 136.873 25.6748 137.496C26.2686 138.119 26.8766 138.537 27.4988 138.75L26.9001 141.212C25.8668 140.893 25.0376 140.409 24.4127 139.76C23.7799 139.106 23.3099 138.37 23.0028 137.552C22.6879 136.728 22.4875 135.907 22.4016 135.087C22.3468 134.565 22.3474 133.958 22.4034 133.266C22.4517 132.568 22.6331 131.881 22.9479 131.205C23.2619 130.523 23.7816 129.929 24.5071 129.424C25.2325 128.919 26.2415 128.598 27.5341 128.462L38.256 127.332L38.5182 129.833L36.3145 130.065L36.3278 130.192C36.6988 130.325 37.1063 130.567 37.5503 130.92C37.9944 131.274 38.3922 131.764 38.7436 132.391C39.095 133.018 39.3203 133.805 39.4196 134.751ZM37.1335 134.607C37.0298 133.618 36.7481 132.805 36.2886 132.167C35.8282 131.523 35.2727 131.06 34.6219 130.779C33.9704 130.491 33.3056 130.382 32.6275 130.454L30.339 130.695C30.4773 130.787 30.6183 131.008 30.762 131.357C30.8979 131.7 31.0292 132.1 31.1557 132.558C31.2745 133.01 31.3851 133.452 31.4875 133.884C31.5822 134.309 31.6612 134.655 31.7247 134.919C31.8776 135.56 32.079 136.153 32.329 136.698C32.5711 137.237 32.8975 137.659 33.3081 137.966C33.711 138.267 34.2302 138.383 34.8659 138.316C35.7347 138.225 36.3579 137.834 36.7355 137.144C37.1052 136.448 37.2379 135.603 37.1335 134.607Z" fill="black"/>
<path d="M38.3332 121.932L16.6351 119.646L16.8973 117.145L24.9069 117.989L24.9291 117.777C24.6659 117.564 24.3323 117.272 23.9285 116.9C23.5183 116.522 23.1724 116.007 22.8907 115.356C22.6027 114.697 22.5143 113.838 22.6254 112.778C22.7691 111.408 23.2383 110.236 24.033 109.263C24.8278 108.29 25.8845 107.576 27.2032 107.122C28.522 106.668 30.036 106.532 31.7453 106.712C33.4687 106.893 34.9318 107.344 36.1346 108.063C37.3304 108.782 38.22 109.697 38.8033 110.808C39.3795 111.919 39.5965 113.152 39.4543 114.508C39.3447 115.554 39.0839 116.373 38.6719 116.965C38.2528 117.556 37.803 117.998 37.3225 118.29C36.8349 118.582 36.4331 118.803 36.1172 118.956L36.0861 119.253L38.5865 119.516L38.3332 121.932ZM30.4541 118.616C31.6831 118.746 32.7862 118.68 33.7634 118.419C34.7335 118.157 35.5197 117.707 36.122 117.071C36.7173 116.434 37.0675 115.614 37.1727 114.611C37.2823 113.565 37.0983 112.664 36.6207 111.907C36.1368 111.141 35.4436 110.533 34.5413 110.081C33.6326 109.621 32.5991 109.33 31.4407 109.208C30.2965 109.087 29.2467 109.155 28.2915 109.412C27.3299 109.66 26.5437 110.109 25.9328 110.759C25.3156 111.401 24.9515 112.252 24.8404 113.311C24.7337 114.329 24.9019 115.21 25.3449 115.957C25.7809 116.703 26.4395 117.301 27.3207 117.751C28.1948 118.2 29.2393 118.488 30.4541 118.616Z" fill="black"/>
<path d="M22.3671 90.1894L43.1128 96.946L42.3375 99.3377L21.5918 92.5811L22.3671 90.1894Z" fill="black"/>
<path d="M50.5973 81.3305C49.8104 82.6968 48.8303 83.701 47.6572 84.3432C46.4814 84.9758 45.1954 85.2449 43.7989 85.1507C42.3999 85.0467 40.975 84.575 39.5243 83.7354C38.0736 82.8959 36.9474 81.8913 36.1458 80.7217C35.3415 79.5424 34.9037 78.2961 34.8323 76.9828C34.7583 75.6599 35.09 74.3584 35.8273 73.0783C36.2527 72.3398 36.7957 71.6816 37.4563 71.1038C38.1169 70.5261 38.894 70.1019 39.7876 69.8312C40.675 69.557 41.6715 69.506 42.7772 69.6781C43.8829 69.8503 45.0965 70.3188 46.4182 71.0836L47.3402 71.6172L41.0446 82.5474L39.1636 81.4588L44.1831 72.7442C43.384 72.2818 42.5787 72.0291 41.7674 71.9863C40.9596 71.9373 40.206 72.1002 39.5065 72.475C38.8106 72.8436 38.2358 73.4218 37.7821 74.2095C37.2822 75.0773 37.0649 75.9526 37.1301 76.8356C37.1927 77.7088 37.4676 78.5121 37.955 79.2454C38.4424 79.9788 39.0764 80.5714 39.8571 81.0232L41.1111 81.7489C42.1807 82.3679 43.1937 82.708 44.1502 82.7691C45.1041 82.8206 45.9661 82.6261 46.7362 82.1855C47.5002 81.7414 48.1356 81.0793 48.6426 80.1992C48.9722 79.6269 49.1901 79.0637 49.2961 78.5096C49.3996 77.9458 49.3859 77.4004 49.255 76.8734C49.1181 76.3428 48.8569 75.8429 48.4714 75.3736L50.2739 73.6104C50.8593 74.2446 51.2719 74.9798 51.5115 75.816C51.745 76.6486 51.7908 77.5367 51.6489 78.4803C51.5009 79.4203 51.1503 80.3704 50.5973 81.3305Z" fill="black"/>
<path d="M74.2253 55.0415C73.123 55.8443 71.9477 56.2741 70.6995 56.3309C69.447 56.3819 68.2116 56.0692 66.9931 55.3926C65.7705 54.7103 64.6507 53.6676 63.6337 52.2645C62.625 50.8728 61.9879 49.4917 61.7225 48.1211C61.4571 46.7505 61.5471 45.4768 61.9924 44.3002C62.4378 43.1236 63.2174 42.1298 64.3312 41.3187C65.1924 40.6915 65.9769 40.3398 66.6848 40.2636C67.3943 40.1774 68.0123 40.2193 68.539 40.3893C69.0673 40.5493 69.4894 40.69 69.8054 40.8113L69.9776 40.6859L65.2509 34.1647L67.2833 32.6847L80.0879 50.3503L78.1244 51.7802L76.6489 49.7445L76.4078 49.9201C76.4336 50.2704 76.4421 50.7298 76.4333 51.2986C76.4203 51.8615 76.2625 52.4729 75.9599 53.1325C75.6532 53.7864 75.075 54.4227 74.2253 55.0415ZM73.1754 53.0122C73.9907 52.4185 74.5254 51.704 74.7796 50.8687C75.0296 50.0276 75.0259 49.121 74.7685 48.1487C74.5069 47.1706 74.0135 46.1813 73.2883 45.1807C72.5713 44.1916 71.8005 43.4307 70.9758 42.8979C70.1468 42.3594 69.301 42.088 68.4383 42.0837C67.5714 42.0736 66.7245 42.3697 65.8978 42.9717C65.0366 43.5989 64.4795 44.3429 64.2263 45.2038C63.9747 46.0548 63.9784 46.9614 64.2374 47.9238C64.4979 48.8763 64.9658 49.8183 65.641 50.7499C66.3246 51.6929 67.0892 52.4452 67.9348 53.0068C68.782 53.5584 69.6544 53.8543 70.552 53.8947C71.4513 53.9251 72.3257 53.631 73.1754 53.0122Z" fill="black"/>
<path d="M90.4312 45.6708C88.9914 46.3133 87.6081 46.5496 86.2814 46.3795C84.9582 46.2 83.7594 45.6618 82.6848 44.7647C81.6139 43.8583 80.7382 42.6391 80.0578 41.1073C79.3774 39.5755 79.0566 38.101 79.0954 36.6837C79.1378 35.257 79.5161 33.9916 80.2302 32.8874C80.9479 31.7738 81.9812 30.916 83.3303 30.314C84.1085 29.9666 84.9348 29.7534 85.8089 29.6744C86.6831 29.5954 87.5612 29.709 88.4433 30.0154C89.3225 30.3152 90.1589 30.8596 90.9524 31.6488C91.7459 32.438 92.4525 33.5303 93.0724 34.9258L93.5049 35.8994L81.9862 41.04L81.104 39.0538L90.2878 34.9553C89.913 34.1115 89.4099 33.4338 88.7786 32.9222C88.1538 32.4078 87.4482 32.0966 86.662 31.9886C85.8822 31.8777 85.0772 32.0075 84.2471 32.378C83.3326 32.7861 82.6422 33.3664 82.176 34.1189C81.7134 34.862 81.4638 35.6734 81.4271 36.5531C81.3904 37.4327 81.5551 38.2847 81.9213 39.1091L82.5094 40.4332C83.0111 41.5626 83.6309 42.4331 84.3689 43.0449C85.1105 43.6472 85.9223 43.9965 86.8044 44.0928C87.6836 44.1827 88.5869 44.0206 89.5144 43.6067C90.1176 43.3375 90.6249 43.01 91.0364 42.6242C91.4514 42.2289 91.7609 41.7797 91.9648 41.2765C92.1659 40.7668 92.2483 40.2089 92.2123 39.6028L94.7072 39.2361C94.8081 40.0932 94.7098 40.9304 94.4122 41.7476C94.1118 42.5583 93.6268 43.3036 92.9574 43.9834C92.285 44.6568 91.443 45.2192 90.4312 45.6708Z" fill="black"/>
<path d="M111.537 22.2394L109.013 39.508L106.513 40.0408L97.2 25.2941L99.8674 24.7258L106.99 36.5406L107.157 36.5051L108.87 22.8077L111.537 22.2394Z" fill="black"/>
<path d="M125.617 38.3409C124.04 38.3409 122.68 37.9929 121.536 37.2969C120.4 36.5938 119.523 35.6136 118.905 34.3565C118.294 33.0923 117.989 31.6222 117.989 29.946C117.989 28.2699 118.294 26.7926 118.905 25.5142C119.523 24.2287 120.382 23.2273 121.483 22.5099C122.591 21.7855 123.884 21.4233 125.361 21.4233C126.213 21.4233 127.055 21.5653 127.886 21.8494C128.717 22.1335 129.473 22.5952 130.155 23.2344C130.837 23.8665 131.38 24.7045 131.785 25.7486C132.19 26.7926 132.392 28.0781 132.392 29.6051V30.6705L119.778 30.6705V28.4972L129.835 28.4972C129.835 27.5739 129.651 26.75 129.281 26.0256C128.919 25.3011 128.401 24.7294 127.726 24.3104C127.058 23.8913 126.27 23.6818 125.361 23.6818C124.359 23.6818 123.493 23.9304 122.761 24.4276C122.037 24.9176 121.479 25.5568 121.089 26.3452C120.698 27.1335 120.503 27.9787 120.503 28.8807V30.3295C120.503 31.5653 120.716 32.6129 121.142 33.4723C121.575 34.3246 122.175 34.9744 122.943 35.4219C123.71 35.8622 124.601 36.0824 125.617 36.0824C126.277 36.0824 126.874 35.9901 127.406 35.8054C127.946 35.6136 128.411 35.3295 128.802 34.9531C129.193 34.5696 129.494 34.0937 129.707 33.5256L132.136 34.2074C131.881 35.0313 131.451 35.7557 130.847 36.3807C130.244 36.9986 129.498 37.4815 128.61 37.8295C127.722 38.1705 126.725 38.3409 125.617 38.3409Z" fill="black"/>
<path d="M148.995 18.823L144.469 40.1666L142.01 39.6427L146.536 18.2991L148.995 18.823Z" fill="black"/>
<path d="M160.353 45.8461C159.004 45.244 157.963 44.3945 157.23 43.2975C156.504 42.2034 156.112 40.9513 156.054 39.5412C156.003 38.134 156.32 36.658 157.007 35.1132C157.699 33.5555 158.585 32.3215 159.665 31.4115C160.752 30.5044 161.944 29.9553 163.241 29.7642C164.545 29.5761 165.871 29.783 167.22 30.3851C168.569 30.9871 169.607 31.8352 170.333 32.9293C171.066 34.0263 171.457 35.2817 171.505 36.6953C171.559 38.1119 171.241 39.5991 170.549 41.1568C169.863 42.7016 168.978 43.9244 167.894 44.825C166.816 45.7286 165.626 46.2744 164.322 46.4626C163.025 46.6536 161.702 46.4481 160.353 45.8461ZM161.269 43.782C162.294 44.2393 163.254 44.3527 164.149 44.1222C165.044 43.8917 165.841 43.419 166.539 42.704C167.238 41.9891 167.809 41.1318 168.253 40.1322C168.697 39.1326 168.952 38.1303 169.017 37.1252C169.083 36.1201 168.903 35.2038 168.478 34.3763C168.053 33.5488 167.328 32.9064 166.303 32.4491C165.279 31.9918 164.317 31.8816 163.419 32.1187C162.521 32.3557 161.722 32.8349 161.02 33.5563C160.319 34.2778 159.747 35.1383 159.303 36.1379C158.859 37.1375 158.605 38.1366 158.542 39.1352C158.48 40.1338 158.662 41.0436 159.09 41.8646C159.518 42.6855 160.245 43.3247 161.269 43.782Z" fill="black"/>
<path d="M167.569 55.95L180.773 37.7323L182.737 39.1622L181.211 41.2669L181.452 41.4425C181.768 41.3212 182.188 41.1785 182.71 41.0143C183.243 40.8485 183.861 40.8066 184.564 40.8886C185.278 40.969 186.065 41.3227 186.927 41.9499C188.04 42.761 188.82 43.7549 189.265 44.9315C189.711 46.1081 189.801 47.3817 189.535 48.7523C189.27 50.1229 188.633 51.5041 187.624 52.8957C186.607 54.2988 185.487 55.3416 184.265 56.0239C183.046 56.7004 181.811 57.0132 180.558 56.9621C179.31 56.9053 178.135 56.4755 177.033 55.6728C176.183 55.054 175.605 54.4176 175.298 53.7637C174.995 53.1041 174.838 52.4928 174.825 51.9298C174.816 51.3611 174.824 50.9016 174.85 50.5514L174.678 50.426L169.601 57.4301L167.569 55.95ZM177.97 45.8119C177.244 46.8125 176.751 47.8019 176.489 48.7799C176.232 49.7522 176.228 50.6589 176.478 51.4999C176.732 52.3352 177.267 53.0497 178.082 53.6434C178.932 54.2622 179.804 54.5543 180.697 54.5197C181.601 54.4835 182.473 54.1875 183.314 53.6317C184.166 53.0744 184.933 52.3242 185.617 51.3811C186.292 50.4495 186.757 49.5054 187.012 48.5488C187.277 47.5906 187.28 46.6839 187.023 45.8288C186.776 44.9721 186.221 44.2301 185.36 43.603C184.533 43.0009 183.687 42.7049 182.82 42.7149C181.957 42.7192 181.111 42.9906 180.282 43.5291C179.457 44.0619 178.687 44.8228 177.97 45.8119Z" fill="black"/>
<path d="M182.903 59.2964L195.051 48.3327L196.674 50.1397L194.776 51.8528L194.918 52.0113C195.794 51.6796 196.666 51.6347 197.532 51.8764C198.404 52.1134 199.196 52.6282 199.907 53.4207C200.629 54.2238 201.047 55.0564 201.163 55.9184C201.289 56.7809 201.162 57.6554 200.784 58.5418L200.898 58.6686C201.806 58.4141 202.724 58.432 203.653 58.7224C204.588 59.008 205.446 59.5867 206.229 60.4585C207.207 61.5469 207.667 62.7441 207.608 64.0501C207.555 65.3513 206.814 66.6468 205.385 67.9363L197.255 75.274L195.575 73.4036L203.705 66.0659C204.602 65.257 205.021 64.4331 204.965 63.5944C204.908 62.7556 204.581 62.0034 203.983 61.3377C203.214 60.4817 202.36 60.0518 201.421 60.0479C200.487 60.0392 199.628 60.3894 198.842 61.0984L190.933 68.2362L189.225 66.3341L197.545 58.8252C198.235 58.2018 198.59 57.4752 198.608 56.6454C198.632 55.8109 198.326 55.0396 197.69 54.3316C197.253 53.8455 196.716 53.5077 196.078 53.3182C195.444 53.134 194.782 53.1194 194.091 53.2745C193.41 53.4301 192.771 53.7768 192.175 54.3145L184.583 61.1668L182.903 59.2964Z" fill="black"/>
<path d="M200.224 82.0783C199.437 80.712 199.06 79.3591 199.092 78.0196C199.133 76.6827 199.543 75.4318 200.323 74.2667C201.112 73.1042 202.232 72.1031 203.683 71.2636C205.134 70.424 206.565 69.9487 207.976 69.8377C209.397 69.7292 210.693 69.9723 211.863 70.5669C213.043 71.1642 214.002 72.1028 214.739 73.3829C215.165 74.1215 215.462 74.9219 215.631 75.7843C215.799 76.6466 215.777 77.5333 215.564 78.4443C215.358 79.3517 214.904 80.2423 214.202 81.116C213.5 81.9898 212.489 82.8091 211.167 83.5739L210.245 84.1075L203.949 73.1774L205.83 72.0888L210.85 80.8034C211.649 80.3409 212.27 79.7682 212.713 79.0853C213.159 78.4086 213.395 77.673 213.421 76.8784C213.45 76.09 213.238 75.3019 212.784 74.5142C212.285 73.6464 211.637 73.0201 210.842 72.6352C210.056 72.2529 209.224 72.09 208.347 72.1464C207.47 72.2027 206.641 72.4568 205.86 72.9086L204.606 73.6343C203.536 74.2533 202.736 74.9627 202.205 75.7624C201.684 76.5647 201.421 77.4102 201.416 78.299C201.418 79.1843 201.672 80.0669 202.179 80.947C202.509 81.5194 202.887 81.9901 203.312 82.3592C203.748 82.7308 204.226 82.9917 204.746 83.1416C205.273 83.288 205.836 83.3112 206.434 83.2112L207.056 85.6576C206.216 85.8487 205.374 85.8392 204.532 85.6291C203.696 85.4155 202.905 85.0112 202.161 84.4162C201.423 83.8177 200.777 83.0383 200.224 82.0783Z" fill="black"/>
<path d="M215.805 91.3261L206.445 94.3744L205.669 91.9828L221.229 86.9153L221.978 89.2259L219.547 90.0177L219.612 90.2204C220.521 90.3279 221.335 90.6752 222.055 91.2622C222.782 91.847 223.337 92.7272 223.718 93.9028C224.059 94.9568 224.142 95.9494 223.966 96.8806C223.797 97.8096 223.348 98.6356 222.619 99.3585C221.897 100.079 220.874 100.655 219.551 101.086L209.664 104.306L208.889 101.914L218.613 98.7472C219.836 98.3491 220.685 97.7214 221.161 96.8642C221.644 96.0048 221.706 95.0211 221.347 93.9131C221.099 93.1496 220.713 92.5211 220.187 92.0276C219.663 91.5408 219.028 91.2285 218.282 91.0907C217.535 90.9529 216.709 91.0313 215.805 91.3261Z" fill="black"/>
<path d="M228.18 118.769L226.061 118.992L225.176 110.559L227.295 110.335L228.18 118.769ZM231.452 112.383L231.714 114.883L216.203 116.517C215.497 116.592 214.978 116.75 214.646 116.992C214.322 117.24 214.118 117.533 214.032 117.871C213.953 118.215 213.933 118.57 213.972 118.938C214.001 119.213 214.039 119.438 214.085 119.611C214.139 119.784 214.182 119.922 214.215 120.026L212.022 120.771C211.941 120.609 211.852 120.379 211.757 120.082C211.654 119.785 211.579 119.404 211.53 118.938C211.456 118.231 211.535 117.523 211.768 116.813C212.001 116.11 212.405 115.503 212.98 114.993C213.556 114.489 214.317 114.188 215.263 114.088L231.452 112.383Z" fill="black"/>
<path d="M210.783 142.241L226.343 147.308L225.594 149.619L223.162 148.827L223.097 149.03C223.822 149.625 224.297 150.358 224.522 151.231C224.754 152.106 224.706 153.05 224.377 154.063C224.044 155.09 223.534 155.869 222.847 156.399C222.164 156.939 221.345 157.266 220.39 157.381L220.337 157.543C221.012 158.203 221.456 159.009 221.67 159.96C221.891 160.913 221.821 161.948 221.46 163.062C221.009 164.454 220.204 165.451 219.046 166.052C217.895 166.655 216.404 166.659 214.574 166.063L204.161 162.672L204.936 160.28L215.349 163.671C216.497 164.045 217.42 163.998 218.116 163.531C218.813 163.063 219.299 162.403 219.575 161.552C219.93 160.458 219.874 159.502 219.407 158.685C218.947 157.87 218.214 157.299 217.207 156.972L207.078 153.672L207.866 151.24L218.523 154.711C219.407 154.999 220.213 154.944 220.939 154.546C221.672 154.149 222.186 153.499 222.479 152.593C222.681 151.972 222.704 151.337 222.548 150.689C222.39 150.047 222.071 149.465 221.591 148.943C221.115 148.429 220.496 148.048 219.733 147.8L210.008 144.633L210.783 142.241Z" fill="black"/>
<path d="M200.01 168.294C200.747 167.014 201.698 166.067 202.863 165.453C204.025 164.845 205.309 164.587 206.715 164.679C208.118 164.777 209.55 165.249 211.013 166.096C212.489 166.949 213.622 167.962 214.414 169.135C215.203 170.313 215.625 171.558 215.68 172.87C215.732 174.189 215.39 175.488 214.652 176.768C213.915 178.048 212.965 178.992 211.804 179.6C210.639 180.214 209.352 180.471 207.943 180.369C206.531 180.274 205.087 179.8 203.612 178.946C202.149 178.099 201.026 177.088 200.244 175.914C199.458 174.745 199.039 173.501 198.987 172.183C198.932 170.871 199.272 169.575 200.01 168.294ZM201.965 169.426C201.404 170.398 201.193 171.342 201.329 172.258C201.465 173.174 201.852 174.018 202.49 174.789C203.128 175.56 203.92 176.219 204.867 176.767C205.813 177.315 206.782 177.675 207.773 177.846C208.765 178.018 209.693 177.936 210.559 177.6C211.424 177.264 212.137 176.609 212.697 175.637C213.257 174.665 213.466 173.719 213.324 172.799C213.181 171.88 212.788 171.033 212.144 170.258C211.5 169.483 210.705 168.822 209.758 168.274C208.812 167.726 207.846 167.368 206.861 167.2C205.876 167.032 204.953 167.118 204.094 167.458C203.234 167.797 202.525 168.453 201.965 169.426Z" fill="black"/>
<path d="M189.549 182.795C190.46 181.781 191.52 181.116 192.729 180.801C193.944 180.49 195.217 180.54 196.549 180.948C197.887 181.361 199.199 182.148 200.486 183.31C201.762 184.461 202.672 185.68 203.216 186.965C203.761 188.251 203.938 189.515 203.747 190.759C203.556 192.002 203 193.137 202.079 194.162C201.367 194.954 200.673 195.461 199.996 195.683C199.32 195.915 198.707 196.002 198.157 195.946C197.607 195.899 197.165 195.849 196.83 195.796L196.688 195.955L202.667 201.351L200.987 203.221L184.79 188.603L186.413 186.796L188.279 188.481L188.479 188.259C188.381 187.921 188.277 187.474 188.167 186.916C188.063 186.362 188.09 185.731 188.249 185.023C188.413 184.32 188.846 183.577 189.549 182.795ZM190.997 184.562C190.324 185.312 189.949 186.122 189.874 186.992C189.804 187.867 189.997 188.753 190.45 189.651C190.91 190.553 191.598 191.418 192.515 192.246C193.422 193.065 194.334 193.649 195.252 193.998C196.175 194.353 197.058 194.442 197.903 194.267C198.753 194.097 199.52 193.631 200.203 192.87C200.915 192.078 201.305 191.234 201.374 190.339C201.443 189.455 201.251 188.569 200.798 187.681C200.345 186.804 199.691 185.979 198.837 185.208C197.973 184.428 197.068 183.851 196.124 183.478C195.181 183.114 194.266 183.006 193.38 183.153C192.494 183.31 191.7 183.78 190.997 184.562Z" fill="black"/>
<path d="M175.645 195.337C176.92 194.409 178.224 193.89 179.556 193.781C180.888 193.681 182.172 193.958 183.409 194.612C184.645 195.276 185.754 196.287 186.738 197.644C187.722 199.001 188.342 200.377 188.598 201.772C188.853 203.176 188.746 204.493 188.278 205.722C187.807 206.961 186.975 208.015 185.781 208.885C185.092 209.386 184.328 209.767 183.49 210.026C182.651 210.285 181.769 210.357 180.842 210.241C179.92 210.13 178.989 209.771 178.049 209.164C177.109 208.557 176.191 207.636 175.295 206.399L174.67 205.537L184.866 198.111L186.142 199.871L178.012 205.791C178.554 206.539 179.187 207.097 179.911 207.466C180.628 207.84 181.383 207.997 182.174 207.939C182.96 207.886 183.72 207.591 184.455 207.056C185.265 206.466 185.819 205.755 186.119 204.922C186.417 204.099 186.492 203.253 186.345 202.385C186.199 201.516 185.86 200.717 185.331 199.987L184.481 198.814C183.755 197.813 182.968 197.09 182.12 196.645C181.269 196.21 180.403 196.037 179.52 196.127C178.642 196.222 177.792 196.568 176.971 197.166C176.437 197.555 176.009 197.981 175.687 198.444C175.363 198.917 175.154 199.421 175.059 199.956C174.968 200.496 175.003 201.059 175.164 201.645L172.801 202.522C172.524 201.705 172.446 200.865 172.567 200.004C172.693 199.148 173.012 198.318 173.526 197.514C174.043 196.715 174.75 195.99 175.645 195.337Z" fill="black"/>
<path d="M168.202 224.916L159.345 204.977L161.641 203.952L170.498 223.892L168.202 224.916Z" fill="black"/>
</svg>
