<svg width="400" height="400" viewBox="0 0 400 400" fill="none" xmlns="http://www.w3.org/2000/svg">
<path d="M195.096 351.364C195.224 352.443 195.742 353.281 196.651 353.878C197.56 354.474 198.675 354.773 199.996 354.773C200.962 354.773 201.807 354.616 202.532 354.304C203.249 353.991 203.81 353.562 204.215 353.015C204.613 352.468 204.812 351.847 204.812 351.151C204.812 350.568 204.673 350.067 204.396 349.648C204.112 349.237 203.75 348.892 203.31 348.615C202.869 348.345 202.408 348.121 201.925 347.944C201.442 347.773 200.998 347.635 200.593 347.528L198.377 346.932C197.809 346.783 197.177 346.577 196.481 346.314C195.778 346.051 195.106 345.692 194.467 345.238C193.821 344.79 193.288 344.215 192.869 343.512C192.45 342.809 192.241 341.946 192.241 340.923C192.241 339.744 192.55 338.679 193.167 337.727C193.778 336.776 194.673 336.019 195.852 335.458C197.024 334.897 198.448 334.616 200.124 334.616C201.687 334.616 203.04 334.869 204.183 335.373C205.319 335.877 206.214 336.58 206.868 337.482C207.514 338.384 207.88 339.432 207.965 340.625H205.238C205.167 339.801 204.89 339.119 204.407 338.58C203.917 338.047 203.299 337.649 202.553 337.386C201.8 337.131 200.991 337.003 200.124 337.003C199.116 337.003 198.21 337.166 197.408 337.493C196.605 337.827 195.969 338.288 195.501 338.878C195.032 339.474 194.797 340.17 194.797 340.966C194.797 341.69 195 342.28 195.405 342.734C195.81 343.189 196.342 343.558 197.003 343.842C197.663 344.126 198.377 344.375 199.144 344.588L201.829 345.355C203.533 345.845 204.883 346.545 205.877 347.454C206.871 348.363 207.368 349.553 207.368 351.023C207.368 352.244 207.038 353.31 206.378 354.219C205.71 355.135 204.815 355.845 203.693 356.349C202.564 356.861 201.303 357.116 199.911 357.116C198.505 357.116 197.255 356.864 196.161 356.36C195.067 355.863 194.201 355.181 193.562 354.315C192.915 353.448 192.574 352.464 192.539 351.364H195.096Z" fill="black"/>
<path d="M163.886 347.013L164.328 344.929L172.621 346.698L172.18 348.782L163.886 347.013ZM168.95 352.102L166.491 351.578L169.723 336.32C169.871 335.625 169.88 335.082 169.752 334.692C169.616 334.307 169.401 334.021 169.106 333.835C168.803 333.654 168.471 333.525 168.11 333.448C167.839 333.39 167.614 333.357 167.435 333.348C167.254 333.345 167.109 333.344 167 333.342L166.968 331.026C167.148 330.999 167.394 330.986 167.706 330.987C168.019 330.982 168.405 331.028 168.864 331.125C169.558 331.273 170.207 331.568 170.811 332.009C171.407 332.449 171.86 333.021 172.168 333.725C172.469 334.429 172.521 335.246 172.324 336.177L168.95 352.102Z" fill="black"/>
<path d="M148.391 324.633L141.754 339.59L139.536 338.6L140.538 336.341L140.383 336.271C139.782 336.889 139.023 337.27 138.105 337.412C137.187 337.554 136.281 337.426 135.386 337.026C135.217 336.95 135.008 336.853 134.758 336.734C134.508 336.614 134.321 336.519 134.197 336.448L135.234 334.111C135.303 334.165 135.469 334.274 135.73 334.438C135.982 334.605 136.261 334.756 136.566 334.892C137.292 335.217 138.008 335.354 138.714 335.304C139.411 335.257 140.043 335.042 140.609 334.657C141.167 334.276 141.596 333.748 141.895 333.073L146.095 323.608L148.391 324.633Z" fill="black"/>
<path d="M120.919 308.625C122.193 309.554 123.088 310.637 123.603 311.875C124.109 313.114 124.243 314.424 124.005 315.806C123.757 317.19 123.142 318.561 122.159 319.918C121.176 321.276 120.063 322.293 118.819 322.968C117.566 323.646 116.284 323.95 114.974 323.883C113.654 323.817 112.397 323.349 111.203 322.479C110.515 321.977 109.918 321.366 109.413 320.646C108.908 319.926 108.568 319.107 108.392 318.188C108.211 317.274 108.264 316.275 108.549 315.191C108.834 314.107 109.425 312.946 110.32 311.71L110.945 310.847L121.138 318.277L119.863 320.038L111.736 314.113C111.195 314.861 110.861 315.637 110.734 316.441C110.602 317.242 110.686 318.01 110.985 318.747C111.279 319.48 111.793 320.114 112.528 320.649C113.337 321.239 114.183 321.548 115.066 321.577C115.939 321.606 116.764 321.417 117.542 321.009C118.32 320.6 118.973 320.031 119.502 319.3L120.352 318.127C121.077 317.126 121.519 316.152 121.679 315.205C121.829 314.259 121.725 313.379 121.367 312.565C121.006 311.756 120.415 311.053 119.594 310.455C119.06 310.066 118.524 309.789 117.985 309.625C117.437 309.462 116.894 309.418 116.358 309.493C115.817 309.573 115.294 309.781 114.789 310.116L113.226 308.133C113.916 307.616 114.688 307.282 115.542 307.132C116.392 306.987 117.278 307.035 118.2 307.276C119.117 307.523 120.023 307.973 120.919 308.625Z" fill="black"/>
<path d="M100.72 290.245C101.413 291.017 101.896 291.848 102.171 292.739C102.44 293.635 102.464 294.517 102.243 295.387C102.017 296.262 101.508 297.056 100.718 297.771C100.022 298.399 99.3347 298.771 98.6559 298.887C97.9719 299.007 97.2996 298.949 96.6393 298.713C95.9789 298.477 95.3391 298.136 94.7198 297.691C94.0905 297.245 93.4852 296.772 92.9039 296.273C92.145 295.619 91.5354 295.083 91.0753 294.666C90.6052 294.248 90.2147 293.989 89.9037 293.887C89.5881 293.78 89.28 293.862 88.9796 294.133L88.9164 294.19C88.1364 294.895 87.7225 295.656 87.6746 296.475C87.6219 297.288 87.9822 298.126 88.7553 298.987C89.557 299.881 90.3805 300.405 91.2258 300.56C92.0712 300.715 92.8077 300.696 93.4353 300.502L94.3967 302.85C93.3743 303.199 92.4204 303.295 91.535 303.138C90.6396 302.98 89.828 302.661 89.1002 302.179C88.3623 301.697 87.7183 301.15 87.168 300.536C86.817 300.145 86.4613 299.653 86.1007 299.06C85.7302 298.466 85.4738 297.803 85.3315 297.07C85.1844 296.332 85.2558 295.545 85.5456 294.709C85.8354 293.873 86.4625 293.019 87.4269 292.147L95.4268 284.92L97.1059 286.791L95.4617 288.277L95.5471 288.372C95.9244 288.261 96.3961 288.217 96.9621 288.242C97.5281 288.267 98.1371 288.429 98.789 288.731C99.441 289.032 100.085 289.536 100.72 290.245ZM98.7884 291.473C98.1243 290.733 97.4197 290.241 96.6744 289.995C95.9245 289.744 95.204 289.696 94.5131 289.852C93.8175 290.001 93.2167 290.305 92.7108 290.762L91.0033 292.305C91.1693 292.298 91.4128 292.394 91.7338 292.592C92.0447 292.79 92.3857 293.037 92.7567 293.334C93.1178 293.63 93.4664 293.922 93.8026 294.212C94.1289 294.501 94.3953 294.734 94.6019 294.911C95.1015 295.34 95.6122 295.702 96.134 295.997C96.6457 296.29 97.1575 296.441 97.6692 296.447C98.1709 296.453 98.659 296.242 99.1333 295.814C99.7815 295.228 100.056 294.545 99.9561 293.764C99.8464 292.982 99.4572 292.219 98.7884 291.473Z" fill="black"/>
<path d="M88.5868 275.857L74.4276 284.059L73.2162 281.954L75.4286 280.672L75.3223 280.488C74.3964 280.63 73.535 280.493 72.7381 280.076C71.9351 279.663 71.2679 278.995 70.7366 278.072C70.1982 277.136 69.9621 276.234 70.0284 275.367C70.085 274.497 70.3903 273.668 70.9443 272.879L70.8593 272.731C69.919 272.792 69.0248 272.583 68.1766 272.106C67.3223 271.632 66.603 270.888 66.0185 269.872C65.2888 268.604 65.0884 267.337 65.4171 266.071C65.7398 264.809 66.7338 263.696 68.3992 262.731L77.8756 257.241L79.1295 259.42L69.6531 264.91C68.6084 265.515 68.0264 266.234 67.9072 267.066C67.788 267.899 67.9515 268.703 68.3978 269.478C68.9717 270.476 69.7173 271.074 70.6348 271.273C71.5462 271.475 72.4597 271.311 73.3754 270.781L82.5936 265.441L83.8688 267.657L74.1712 273.275C73.3661 273.741 72.8683 274.378 72.6777 275.186C72.481 275.998 72.62 276.816 73.0946 277.641C73.4205 278.208 73.8757 278.65 74.4602 278.968C75.0411 279.28 75.6857 279.432 76.394 279.424C77.0925 279.413 77.789 279.206 78.4834 278.804L87.3329 273.677L88.5868 275.857Z" fill="black"/>
<path d="M51.2068 247.224L71.9504 240.461L72.7249 242.853L51.9813 249.616L51.2068 247.224Z" fill="black"/>
<path d="M66.6477 215.34L50.3743 217.056L50.1124 214.556L66.3858 212.84L66.6477 215.34ZM47.5289 216.071C47.58 216.558 47.458 216.996 47.1631 217.384C46.8673 217.765 46.4864 217.98 46.0202 218.03C45.5541 218.079 45.1369 217.948 44.7687 217.637C44.3997 217.319 44.1897 216.916 44.1386 216.428C44.0876 215.941 44.2099 215.507 44.5056 215.126C44.8006 214.737 45.1812 214.519 45.6473 214.47C46.1135 214.42 46.5311 214.555 46.9 214.873C47.2682 215.184 47.4779 215.583 47.5289 216.071Z" fill="black"/>
<path d="M56.3147 188.817L66.1042 189.849L65.8423 192.35L49.5689 190.633L49.8219 188.218L52.3646 188.486L52.3868 188.274C51.6004 187.805 50.9972 187.156 50.5771 186.326C50.1499 185.496 50.0007 184.466 50.1294 183.237C50.2449 182.135 50.5719 181.194 51.1105 180.416C51.642 179.636 52.3874 179.065 53.3466 178.702C54.2988 178.338 55.4671 178.229 56.8515 178.375L67.1918 179.466L66.9299 181.966L56.759 180.893C55.4806 180.759 54.45 180.986 53.667 181.574C52.877 182.162 52.4214 183.036 52.3 184.194C52.2164 184.992 52.3147 185.724 52.595 186.389C52.876 187.047 53.3296 187.591 53.9558 188.022C54.5819 188.452 55.3683 188.717 56.3147 188.817Z" fill="black"/>
<path d="M72.7943 158.04C72.3085 159.54 71.5587 160.726 70.5447 161.598C69.5261 162.461 68.324 162.992 66.9385 163.19C65.5484 163.379 64.0565 163.214 62.463 162.694C60.8694 162.175 59.559 161.426 58.5317 160.449C57.4998 159.463 56.8125 158.335 56.4696 157.065C56.1222 155.787 56.176 154.444 56.6311 153.039C56.8937 152.228 57.288 151.472 57.8141 150.769C58.3402 150.067 59.0121 149.49 59.8299 149.04C60.6409 148.587 61.6051 148.33 62.7224 148.268C63.8397 148.207 65.1243 148.413 66.5761 148.886L67.5889 149.216L63.7031 161.216L61.6368 160.543L64.735 150.975C63.8572 150.689 63.017 150.609 62.2145 150.736C61.4142 150.856 60.7109 151.172 60.1046 151.684C59.5005 152.189 59.0585 152.874 58.7784 153.739C58.4699 154.692 58.4393 155.593 58.6866 156.443C58.9294 157.284 59.3653 158.013 59.9945 158.629C60.6237 159.245 61.3671 159.693 62.2246 159.972L63.6021 160.421C64.7771 160.804 65.8387 160.926 66.787 160.787C67.7308 160.639 68.5335 160.27 69.1952 159.679C69.8502 159.086 70.3341 158.306 70.647 157.34C70.8505 156.711 70.9465 156.115 70.935 155.551C70.919 154.978 70.7922 154.448 70.5547 153.959C70.3104 153.469 69.9509 153.034 69.4764 152.655L70.8729 150.556C71.5774 151.054 72.1338 151.688 72.542 152.456C72.9435 153.222 73.173 154.081 73.2303 155.033C73.2809 155.984 73.1356 156.986 72.7943 158.04Z" fill="black"/>
<path d="M84.1071 132.613C83.427 133.795 82.5285 134.665 81.4117 135.225C80.2888 135.781 79.0334 135.998 77.6455 135.875C76.2514 135.749 74.8047 135.251 73.3052 134.382C71.818 133.521 70.6744 132.518 69.8745 131.373C69.0746 130.228 68.6387 129.028 68.5668 127.771C68.4949 126.515 68.8026 125.29 69.4897 124.095C70.021 123.172 70.5944 122.531 71.2098 122.174C71.8227 121.807 72.4041 121.594 72.9542 121.535C73.5017 121.466 73.9445 121.423 74.2824 121.405L74.3886 121.221L67.4196 117.183L68.6735 115.004L87.5525 125.941L86.3411 128.046L84.1656 126.786L84.0169 127.045C84.1829 127.354 84.3775 127.771 84.6008 128.294C84.818 128.814 84.9226 129.437 84.9146 130.163C84.9005 130.885 84.6313 131.702 84.1071 132.613ZM82.3228 131.185C82.8258 130.311 83.0235 129.44 82.9158 128.574C82.802 127.703 82.4298 126.876 81.7993 126.092C81.1626 125.305 80.3096 124.601 79.2403 123.982C78.1832 123.37 77.1698 122.988 76.1999 122.836C75.2239 122.681 74.3411 122.777 73.5515 123.124C72.7557 123.468 72.1028 124.082 71.5928 124.969C71.0614 125.892 70.8553 126.799 70.9743 127.689C71.0907 128.569 71.4629 129.396 72.0908 130.17C72.7162 130.934 73.5266 131.605 74.5222 132.182C75.5301 132.766 76.5343 133.142 77.5349 133.311C78.5329 133.471 79.45 133.387 80.2861 133.059C81.1197 132.721 81.7986 132.096 82.3228 131.185Z" fill="black"/>
<path d="M121.398 91.0254C120.296 91.8287 119.121 92.2589 117.873 92.3159C116.621 92.3672 115.387 92.0545 114.169 91.3778C112.947 90.6953 111.828 89.6523 110.811 88.2486C109.803 86.8565 109.167 85.4748 108.902 84.1036C108.637 82.7324 108.727 81.4582 109.172 80.2809C109.618 79.1037 110.397 78.1093 111.51 77.2976C112.371 76.67 113.155 76.318 113.863 76.2417C114.572 76.1554 115.19 76.1972 115.716 76.3671C116.244 76.5271 116.666 76.6678 116.982 76.7891L117.154 76.6636L112.431 70.1402L114.462 68.6591L127.258 86.3311L125.295 87.762L123.821 85.7255L123.58 85.9013C123.606 86.2516 123.614 86.7113 123.605 87.2803C123.592 87.8436 123.434 88.4552 123.132 89.1152C122.825 89.7694 122.247 90.4062 121.398 91.0254ZM120.349 88.9952C121.164 88.4011 121.698 87.6862 121.952 86.8505C122.202 86.009 122.199 85.1019 121.942 84.1292C121.68 83.1507 121.187 82.161 120.463 81.1601C119.746 80.1706 118.976 79.4094 118.152 78.8766C117.323 78.3379 116.478 78.0665 115.615 78.0623C114.749 78.0524 113.902 78.3487 113.076 78.9512C112.215 79.5788 111.658 80.3232 111.405 81.1846C111.153 82.036 111.157 82.9431 111.416 83.9059C111.676 84.8587 112.143 85.8011 112.818 86.733C113.501 87.6764 114.265 88.429 115.11 88.9906C115.957 89.5424 116.829 89.8383 117.726 89.8786C118.625 89.9089 119.499 89.6144 120.349 88.9952Z" fill="black"/>
<path d="M145.533 77.0168C144.184 77.6194 142.858 77.8268 141.555 77.6389C140.258 77.4481 139.068 76.9024 137.985 76.0018C136.908 75.0983 136.027 73.874 135.341 72.3289C134.65 70.7708 134.328 69.2848 134.377 67.8707C134.432 66.4537 134.823 65.1979 135.549 64.1033C136.282 63.0058 137.323 62.1557 138.671 61.5532C140.02 60.9506 141.343 60.7447 142.64 60.9355C143.943 61.1233 145.135 61.6723 146.214 62.5823C147.301 63.4894 148.189 64.722 148.881 66.28C149.566 67.8251 149.88 69.3029 149.822 70.7134C149.771 72.121 149.379 73.3735 148.646 74.4711C147.919 75.5657 146.882 76.4143 145.533 77.0168ZM144.617 74.9524C145.642 74.4947 146.368 73.8552 146.796 73.0338C147.224 72.2125 147.407 71.3024 147.344 70.3035C147.282 69.3046 147.029 68.3053 146.585 67.3056C146.142 66.3058 145.569 65.4452 144.869 64.7237C144.168 64.0023 143.368 63.5231 142.471 63.2863C141.573 63.0494 140.612 63.1599 139.588 63.6176C138.563 64.0753 137.838 64.7181 137.413 65.5459C136.988 66.3737 136.808 67.2903 136.873 68.2957C136.938 69.3011 137.193 70.3036 137.637 71.3034C138.08 72.3031 138.651 73.1605 139.349 73.8755C140.047 74.5904 140.843 75.0631 141.738 75.2935C142.633 75.5238 143.592 75.4101 144.617 74.9524Z" fill="black"/>
<path d="M166.221 59.1552L168.261 68.7852L165.802 69.3097L162.411 53.3013L164.787 52.7946L165.317 55.2959L165.525 55.2515C165.728 54.3585 166.159 53.5839 166.819 52.9277C167.477 52.2644 168.41 51.804 169.619 51.5462C170.702 51.3151 171.698 51.3352 172.605 51.6065C173.51 51.8709 174.283 52.4031 174.925 53.2031C175.565 53.9962 176.029 55.0737 176.317 56.4355L178.472 66.6075L176.013 67.1319L173.894 57.1267C173.627 55.8691 173.093 54.959 172.292 54.3965C171.489 53.8271 170.518 53.6638 169.378 53.9068C168.594 54.0742 167.928 54.394 167.382 54.8663C166.843 55.3372 166.465 55.9369 166.249 56.6656C166.034 57.3943 166.024 58.2241 166.221 59.1552Z" fill="black"/>
<path d="M199.765 65.3835C198.728 65.3835 197.787 65.1882 196.942 64.7976C196.097 64.3999 195.426 63.8281 194.928 63.0824C194.431 62.3295 194.183 61.4205 194.183 60.3551C194.183 59.4176 194.367 58.6577 194.737 58.0753C195.106 57.4858 195.6 57.0241 196.218 56.6903C196.835 56.3565 197.517 56.108 198.263 55.9446C199.016 55.7741 199.772 55.6392 200.532 55.5398C201.526 55.4119 202.333 55.3161 202.95 55.2521C203.575 55.1811 204.03 55.0639 204.314 54.9006C204.605 54.7372 204.751 54.4531 204.751 54.0483V53.9631C204.751 52.9119 204.463 52.0952 203.888 51.5128C203.32 50.9304 202.457 50.6392 201.299 50.6392C200.099 50.6392 199.158 50.902 198.476 51.4276C197.794 51.9531 197.315 52.5142 197.038 53.1108L194.651 52.2585C195.078 51.2642 195.646 50.4901 196.356 49.9361C197.073 49.375 197.855 48.9844 198.7 48.7642C199.552 48.5369 200.39 48.4233 201.214 48.4233C201.74 48.4233 202.343 48.4872 203.025 48.6151C203.714 48.7358 204.378 48.9879 205.017 49.3714C205.664 49.755 206.2 50.3338 206.626 51.108C207.052 51.8821 207.265 52.919 207.265 54.2188L207.265 65H204.751V62.7841H204.623C204.453 63.1392 204.168 63.5192 203.771 63.924C203.373 64.3288 202.844 64.6733 202.183 64.9574C201.523 65.2415 200.717 65.3835 199.765 65.3835ZM200.149 63.125C201.143 63.125 201.981 62.9297 202.663 62.5391C203.352 62.1484 203.87 61.6442 204.218 61.0263C204.573 60.4084 204.751 59.7585 204.751 59.0767V56.7756C204.644 56.9034 204.41 57.0206 204.048 57.1271C203.693 57.2266 203.281 57.3153 202.812 57.3935C202.35 57.4645 201.899 57.5284 201.459 57.5852C201.026 57.6349 200.674 57.6776 200.404 57.7131C199.751 57.7983 199.14 57.9368 198.572 58.1286C198.011 58.3132 197.556 58.5937 197.208 58.9702C196.867 59.3395 196.697 59.8437 196.697 60.483C196.697 61.3565 197.02 62.017 197.666 62.4645C198.32 62.9048 199.147 63.125 200.149 63.125Z" fill="black"/>
<path d="M236.322 52.9867L235.88 55.0711L227.587 53.3022L228.028 51.2178L236.322 52.9867ZM231.258 47.898L233.717 48.4225L230.485 63.6805C230.338 64.3753 230.328 64.9179 230.456 65.3082C230.592 65.6931 230.807 65.9787 231.102 66.165C231.405 66.3458 231.737 66.4747 232.098 66.5517C232.369 66.6095 232.594 66.643 232.774 66.6522C232.955 66.6545 233.1 66.6564 233.208 66.6578L233.24 68.9739C233.06 69.0009 232.814 69.0138 232.502 69.0126C232.189 69.0184 231.803 68.9724 231.345 68.8746C230.65 68.7265 230.001 68.4319 229.398 67.9909C228.801 67.5514 228.349 66.9793 228.041 66.2745C227.739 65.5712 227.687 64.7541 227.885 63.823L231.258 47.898Z" fill="black"/>
<path d="M253.663 76.1914L260.3 61.2341L262.596 62.2596L255.959 77.2169L253.663 76.1914ZM262.574 59.2626C262.126 59.0627 261.808 58.7378 261.619 58.2878C261.437 57.8408 261.441 57.403 261.631 56.9745C261.821 56.5461 262.143 56.2503 262.596 56.0871C263.055 55.9268 263.509 55.9466 263.956 56.1465C264.404 56.3464 264.719 56.6699 264.901 57.117C265.09 57.5669 265.089 58.0062 264.899 58.4346C264.709 58.8631 264.384 59.1574 263.924 59.3177C263.471 59.4809 263.021 59.4625 262.574 59.2626Z" fill="black"/>
<path d="M278.94 91.1197C277.746 90.2495 276.905 89.2012 276.416 87.9748C275.934 86.7526 275.81 85.4454 276.047 84.0533C276.289 82.6653 276.906 81.2868 277.897 79.9176C278.897 78.537 280.019 77.5138 281.264 76.8481C282.514 76.1866 283.793 75.8974 285.101 75.9806C286.415 76.068 287.668 76.5468 288.862 77.417C290.056 78.2873 290.894 79.3335 291.377 80.5557C291.866 81.7821 291.987 83.0921 291.74 84.4858C291.5 85.8837 290.88 87.273 289.88 88.6536C288.889 90.0227 287.77 91.0352 286.523 91.691C285.283 92.3509 284.006 92.6372 282.692 92.5499C281.385 92.4667 280.134 91.99 278.94 91.1197ZM280.265 89.2904C281.171 89.9515 282.086 90.2624 283.009 90.2232C283.932 90.184 284.809 89.8872 285.64 89.3329C286.471 88.7785 287.207 88.0584 287.848 87.1725C288.49 86.2866 288.947 85.3586 289.22 84.3885C289.493 83.4184 289.507 82.4841 289.263 81.5856C289.019 80.6872 288.444 79.9074 287.537 79.2464C286.631 78.5853 285.714 78.2772 284.787 78.3222C283.86 78.3672 282.979 78.6697 282.143 79.2298C281.308 79.7898 280.57 80.5128 279.928 81.3987C279.287 82.2846 278.832 83.2098 278.563 84.1741C278.295 85.1385 278.284 86.067 278.532 86.9597C278.78 87.8525 279.358 88.6293 280.265 89.2904Z" fill="black"/>
<path d="M304.658 100.203L297.354 106.802L295.674 104.931L307.816 93.9612L309.439 95.769L307.541 97.483L307.684 97.6416C308.556 97.37 309.441 97.3559 310.337 97.5993C311.238 97.838 312.101 98.4172 312.927 99.3369C313.667 100.162 314.145 101.035 314.363 101.959C314.586 102.877 314.512 103.815 314.14 104.773C313.774 105.726 313.075 106.669 312.042 107.602L304.326 114.573L302.647 112.702L310.236 105.845C311.19 104.984 311.71 104.064 311.796 103.086C311.888 102.103 311.545 101.179 310.767 100.312C310.231 99.7145 309.623 99.2973 308.942 99.0601C308.267 98.8283 307.56 98.8013 306.823 98.9793C306.086 99.1573 305.364 99.5652 304.658 100.203Z" fill="black"/>
<path d="M320.238 154.691L341.63 147.717L342.378 150.027L339.907 150.833L339.999 151.117C340.325 151.205 340.749 151.336 341.268 151.51C341.796 151.689 342.321 152.018 342.842 152.498C343.372 152.983 343.801 153.732 344.13 154.745C344.554 156.056 344.601 157.318 344.27 158.532C343.938 159.745 343.263 160.828 342.242 161.781C341.222 162.734 339.895 163.477 338.261 164.009C336.613 164.546 335.094 164.732 333.704 164.565C332.32 164.396 331.137 163.923 330.154 163.145C329.177 162.366 328.479 161.327 328.058 160.03C327.735 159.03 327.641 158.175 327.777 157.466C327.92 156.754 328.151 156.167 328.472 155.704C328.799 155.239 329.076 154.872 329.303 154.604L329.237 154.401L321.012 157.083L320.238 154.691ZM334.612 152.604C333.437 152.987 332.457 153.497 331.67 154.135C330.89 154.77 330.355 155.501 330.063 156.328C329.777 157.154 329.79 158.046 330.101 159.005C330.425 160.005 330.958 160.754 331.701 161.251C332.454 161.753 333.333 162.026 334.341 162.071C335.357 162.121 336.419 161.965 337.527 161.604C338.621 161.248 339.552 160.757 340.32 160.133C341.098 159.514 341.633 158.782 341.928 157.939C342.231 157.101 342.219 156.175 341.89 155.161C341.575 154.189 341.064 153.451 340.357 152.95C339.656 152.446 338.812 152.169 337.825 152.117C336.845 152.063 335.774 152.225 334.612 152.604Z" fill="black"/>
<path d="M355.52 184.872L333.823 187.16L333.561 184.66L355.258 182.372L355.52 184.872Z" fill="black"/>
<path d="M333.345 213.714C333.453 212.683 333.746 211.768 334.222 210.968C334.706 210.169 335.344 209.562 336.138 209.145C336.938 208.73 337.868 208.578 338.928 208.69C339.86 208.788 340.596 209.051 341.137 209.48C341.685 209.909 342.092 210.448 342.36 211.098C342.628 211.747 342.804 212.452 342.889 213.21C342.98 213.977 343.035 214.743 343.055 215.51C343.078 216.512 343.09 217.324 343.089 217.945C343.094 218.574 343.164 219.038 343.297 219.338C343.429 219.645 343.696 219.819 344.099 219.862L344.183 219.871C345.229 219.981 346.071 219.781 346.71 219.27C347.348 218.766 347.728 217.938 347.848 216.786C347.973 215.593 347.81 214.629 347.359 213.896C346.907 213.163 346.399 212.627 345.834 212.289L346.931 210.005C347.875 210.533 348.586 211.179 349.063 211.944C349.546 212.716 349.853 213.534 349.984 214.398C350.121 215.269 350.147 216.115 350.061 216.934C350.006 217.457 349.88 218.051 349.682 218.715C349.49 219.388 349.17 220.022 348.722 220.617C348.273 221.22 347.642 221.692 346.827 222.035C346.013 222.378 344.96 222.481 343.667 222.345L332.945 221.214L333.207 218.713L335.411 218.946L335.424 218.819C335.089 218.612 334.741 218.289 334.379 217.851C334.018 217.413 333.731 216.851 333.517 216.164C333.303 215.477 333.246 214.661 333.345 213.714ZM335.551 214.333C335.448 215.322 335.555 216.176 335.872 216.895C336.189 217.621 336.636 218.189 337.215 218.6C337.792 219.018 338.42 219.263 339.098 219.334L341.386 219.576C341.27 219.456 341.178 219.211 341.11 218.84C341.048 218.476 341.003 218.057 340.974 217.583C340.951 217.116 340.935 216.661 340.924 216.217C340.92 215.781 340.914 215.427 340.907 215.155C340.89 214.496 340.816 213.874 340.685 213.289C340.559 212.711 340.328 212.23 339.99 211.844C339.658 211.466 339.174 211.244 338.538 211.177C337.67 211.085 336.979 211.337 336.467 211.933C335.961 212.537 335.656 213.337 335.551 214.333Z" fill="black"/>
<path d="M341.898 251.454L339.873 250.794L342.485 242.726L344.511 243.386L341.898 251.454ZM347.477 246.953L346.702 249.345L331.874 244.51C331.198 244.29 330.66 244.223 330.259 244.309C329.863 244.404 329.557 244.588 329.341 244.861C329.13 245.144 328.968 245.461 328.854 245.812C328.769 246.075 328.712 246.296 328.685 246.474C328.664 246.654 328.647 246.798 328.635 246.906L326.33 246.692C326.321 246.51 326.334 246.264 326.367 245.954C326.394 245.641 326.479 245.262 326.624 244.816C326.843 244.14 327.202 243.525 327.703 242.971C328.201 242.424 328.816 242.034 329.548 241.803C330.278 241.577 331.095 241.612 332 241.907L347.477 246.953Z" fill="black"/>
<path d="M328.052 280.111L326.209 279.043L330.608 271.398L332.452 272.466L328.052 280.111ZM316.975 266.553L333.088 275.888C333.899 276.358 334.466 276.94 334.787 277.635C335.108 278.33 335.229 279.061 335.148 279.827C335.068 280.593 334.833 281.314 334.443 281.992C334.135 282.527 333.841 282.939 333.56 283.228C333.279 283.517 333.054 283.723 332.885 283.846L331.365 282.129C331.466 282.04 331.601 281.912 331.769 281.747C331.934 281.589 332.107 281.352 332.288 281.038C332.702 280.318 332.82 279.693 332.642 279.163C332.46 278.639 332.019 278.174 331.318 277.768L315.721 268.732L316.975 266.553Z" fill="black"/>
<path d="M299.746 290.021C300.732 288.922 301.859 288.193 303.125 287.834C304.387 287.481 305.696 287.496 307.051 287.878C308.402 288.266 309.704 289.026 310.959 290.159C312.223 291.302 313.121 292.529 313.652 293.842C314.178 295.159 314.331 296.466 314.113 297.762C313.89 299.063 313.285 300.263 312.299 301.363C311.312 302.462 310.188 303.189 308.926 303.542C307.66 303.9 306.349 303.884 304.993 303.491C303.632 303.104 302.319 302.339 301.054 301.196C299.8 300.063 298.913 298.84 298.392 297.528C297.867 296.22 297.715 294.916 297.938 293.615C298.157 292.319 298.759 291.121 299.746 290.021ZM301.422 291.536C300.672 292.371 300.269 293.251 300.212 294.176C300.155 295.1 300.358 296.007 300.821 296.894C301.284 297.782 301.922 298.592 302.733 299.325C303.545 300.058 304.417 300.612 305.351 300.986C306.284 301.361 307.209 301.473 308.125 301.325C309.041 301.176 309.873 300.684 310.623 299.849C311.372 299.014 311.773 298.131 311.825 297.202C311.876 296.272 311.668 295.361 311.199 294.469C310.731 293.576 310.091 292.764 309.279 292.03C308.468 291.297 307.598 290.746 306.67 290.376C305.742 290.007 304.822 289.899 303.912 290.052C303.001 290.206 302.171 290.7 301.422 291.536Z" fill="black"/>
<path d="M281.791 307.223L291.388 320.477L289.426 321.908L287.976 319.906L287.838 320.007C288.072 320.838 288.021 321.688 287.686 322.557C287.35 323.426 286.786 324.149 285.994 324.726C285.845 324.835 285.657 324.968 285.429 325.125C285.201 325.283 285.025 325.398 284.902 325.47L283.402 323.399C283.484 323.366 283.66 323.277 283.932 323.131C284.202 322.996 284.472 322.83 284.742 322.633C285.385 322.165 285.861 321.611 286.17 320.973C286.478 320.344 286.607 319.687 286.558 319.002C286.508 318.327 286.266 317.69 285.833 317.092L279.76 308.705L281.791 307.223Z" fill="black"/>
<path d="M263.704 319.323L270.341 334.28L268.123 335.271L267.086 332.934L266.892 333.021C266.935 333.958 266.707 334.803 266.209 335.554C265.714 336.312 264.98 336.908 264.008 337.343C263.022 337.783 262.102 337.926 261.249 337.77C260.391 337.625 259.601 337.235 258.877 336.601L258.721 336.671C258.681 337.614 258.38 338.484 257.816 339.281C257.256 340.083 256.44 340.724 255.37 341.202C254.034 341.799 252.756 341.868 251.535 341.41C250.317 340.959 249.317 339.853 248.537 338.094L244.095 328.083L246.39 327.058L250.832 337.068C251.322 338.172 251.973 338.826 252.787 339.03C253.6 339.235 254.415 339.155 255.232 338.79C256.283 338.32 256.956 337.639 257.25 336.745C257.548 335.857 257.482 334.93 257.053 333.962L252.732 324.225L255.067 323.182L259.612 333.426C259.99 334.276 260.569 334.838 261.351 335.111C262.135 335.391 262.962 335.337 263.831 334.948C264.428 334.682 264.915 334.274 265.292 333.724C265.663 333.177 265.883 332.55 265.95 331.843C266.013 331.146 265.882 330.43 265.557 329.697L261.409 320.348L263.704 319.323Z" fill="black"/>
</svg>
